<svg width="24" height="22" viewBox="0 0 24 22" fill="none" xmlns="http://www.w3.org/2000/svg">
<path d="M6 15.4C6.30125 15.4 6.54545 15.6462 6.54545 15.95V17.05C6.54545 17.3538 6.30125 17.6 6 17.6H4.90909C4.60784 17.6 4.36364 17.3538 4.36364 17.05V15.95C4.36364 15.6462 4.60784 15.4 4.90909 15.4H6Z" fill="white"/>
<path d="M10.3636 15.4C10.6649 15.4 10.9091 15.6462 10.9091 15.95V17.05C10.9091 17.3538 10.6649 17.6 10.3636 17.6H9.27273C8.97148 17.6 8.72727 17.3538 8.72727 17.05V15.95C8.72727 15.6462 8.97148 15.4 9.27273 15.4H10.3636Z" fill="white"/>
<path d="M14.7273 15.4C15.0285 15.4 15.2727 15.6462 15.2727 15.95V17.05C15.2727 17.3538 15.0285 17.6 14.7273 17.6H13.6364C13.3351 17.6 13.0909 17.3538 13.0909 17.05V15.95C13.0909 15.6462 13.3351 15.4 13.6364 15.4H14.7273Z" fill="white"/>
<path d="M6 11.55C6.30125 11.55 6.54545 11.7962 6.54545 12.1V13.2C6.54545 13.5038 6.30125 13.75 6 13.75H4.90909C4.60784 13.75 4.36364 13.5038 4.36364 13.2V12.1C4.36364 11.7962 4.60784 11.55 4.90909 11.55H6Z" fill="white"/>
<path d="M10.3636 11.55C10.6649 11.55 10.9091 11.7962 10.9091 12.1V13.2C10.9091 13.5038 10.6649 13.75 10.3636 13.75H9.27273C8.97148 13.75 8.72727 13.5038 8.72727 13.2V12.1C8.72727 11.7962 8.97148 11.55 9.27273 11.55H10.3636Z" fill="white"/>
<path d="M14.7273 11.55C15.0285 11.55 15.2727 11.7962 15.2727 12.1V13.2C15.2727 13.5038 15.0285 13.75 14.7273 13.75H13.6364C13.3351 13.75 13.0909 13.5038 13.0909 13.2V12.1C13.0909 11.7962 13.3351 11.55 13.6364 11.55H14.7273Z" fill="white"/>
<path d="M19.0909 11.55C19.3922 11.55 19.6364 11.7962 19.6364 12.1V13.2C19.6364 13.5038 19.3922 13.75 19.0909 13.75H18C17.6988 13.75 17.4545 13.5038 17.4545 13.2V12.1C17.4545 11.7962 17.6988 11.55 18 11.55H19.0909Z" fill="white"/>
<path d="M10.3636 7.7C10.6649 7.7 10.9091 7.94624 10.9091 8.25V9.35C10.9091 9.65376 10.6649 9.9 10.3636 9.9H9.27273C8.97148 9.9 8.72727 9.65376 8.72727 9.35V8.25C8.72727 7.94624 8.97148 7.7 9.27273 7.7H10.3636Z" fill="white"/>
<path d="M14.7273 7.7C15.0285 7.7 15.2727 7.94624 15.2727 8.25V9.35C15.2727 9.65376 15.0285 9.9 14.7273 9.9H13.6364C13.3351 9.9 13.0909 9.65376 13.0909 9.35V8.25C13.0909 7.94624 13.3351 7.7 13.6364 7.7H14.7273Z" fill="white"/>
<path d="M19.0909 7.7C19.3922 7.7 19.6364 7.94624 19.6364 8.25V9.35C19.6364 9.65376 19.3922 9.9 19.0909 9.9H18C17.6988 9.9 17.4545 9.65376 17.4545 9.35V8.25C17.4545 7.94624 17.6988 7.7 18 7.7H19.0909Z" fill="white"/>
<path fill-rule="evenodd" clip-rule="evenodd" d="M18.7638 0C20.5966 5.36494e-10 21.5134 0.000198662 22.2134 0.359863C22.8289 0.676195 23.3294 1.18082 23.6431 1.80146C23.9998 2.50735 24 3.43176 24 5.27979V16.7202C24 18.5682 23.9998 19.4927 23.6431 20.1985C23.3294 20.8192 22.8289 21.3238 22.2134 21.6401C21.5134 21.9998 20.5966 22 18.7638 22H5.23615C3.40339 22 2.48662 21.9998 1.78658 21.6401C1.17106 21.3238 0.670607 20.8192 0.356889 20.1985C0.000197085 19.4927 5.36631e-10 18.5682 0 16.7202V5.27979C5.36631e-10 3.43176 0.000197085 2.50735 0.356889 1.80146C0.670607 1.18082 1.17106 0.676195 1.78658 0.359863C2.48662 0.000198728 3.40339 5.40114e-10 5.23615 0H18.7638ZM4.80043 5.5C3.88438 5.5 3.42562 5.49979 3.07564 5.67939C2.76774 5.83759 2.51661 6.0908 2.35973 6.40127C2.18161 6.75417 2.18182 7.21675 2.18182 8.14043V17.1596C2.18182 18.0833 2.18161 18.5458 2.35973 18.8987C2.51661 19.2092 2.76774 19.4624 3.07564 19.6206C3.42562 19.8002 3.88438 19.8 4.80043 19.8H19.1996C20.1156 19.8 20.5744 19.8002 20.9244 19.6206C21.2323 19.4624 21.4834 19.2092 21.6403 18.8987C21.8184 18.5458 21.8182 18.0833 21.8182 17.1596V8.14043C21.8182 7.21675 21.8184 6.75417 21.6403 6.40127C21.4834 6.0908 21.2323 5.83759 20.9244 5.67939C20.5744 5.49979 20.1156 5.5 19.1996 5.5H4.80043Z" fill="white"/>
</svg>
