<svg width="40" height="48" viewBox="0 0 40 48" fill="none" xmlns="http://www.w3.org/2000/svg">
<path fill-rule="evenodd" clip-rule="evenodd" d="M23.7422 1.71693e-05C24.0752 1.71693e-05 24.3307 -0.0013588 24.583 0.020525C25.71 0.118308 26.7794 0.561416 27.6455 1.28908C27.8394 1.45201 28.0194 1.63368 28.2549 1.86916L37.5273 11.1416C37.7628 11.3771 37.9445 11.5571 38.1074 11.751C38.8351 12.6171 39.2782 13.6865 39.376 14.8135C39.3979 15.0658 39.3965 15.3213 39.3965 15.6543V29.4746C39.3965 30.5698 39.3976 31.4815 39.3369 32.2237C39.2748 32.9834 39.1406 33.6966 38.7969 34.3711C38.2696 35.4059 37.4283 36.2471 36.3936 36.7744C35.7191 37.1181 35.0058 37.2524 34.2461 37.3145C33.5038 37.3751 32.5914 37.374 31.4961 37.374H29.2861V39.584C29.2861 40.6792 29.2872 41.5908 29.2266 42.333C29.1645 43.0928 29.0302 43.806 28.6865 44.4805C28.1593 45.5153 27.318 46.3565 26.2832 46.8838C25.6088 47.2274 24.8953 47.3618 24.1357 47.4238C23.3935 47.4845 22.4809 47.4834 21.3857 47.4834H7.90039C6.80519 47.4834 5.89257 47.4845 5.15039 47.4238C4.39086 47.3618 3.67727 47.2274 3.00293 46.8838C1.96828 46.3565 1.12682 45.5152 0.599611 44.4805C0.255994 43.806 0.121643 43.0927 0.0595716 42.333C-0.00106481 41.5909 1.01138e-06 40.6792 1.25309e-06 39.584V18.0098C1.25309e-06 16.9144 -0.00107112 16.002 0.0595716 15.2598C0.121653 14.5002 0.256017 13.7867 0.599611 13.1123C1.12685 12.0776 1.96829 11.2363 3.00293 10.709C3.67727 10.3654 4.39085 10.2311 5.15039 10.169C5.89257 10.1083 6.80519 10.1094 7.90039 10.1094H10.1104V7.90041C10.1104 6.80506 10.1093 5.89267 10.1699 5.15041C10.232 4.39075 10.3663 3.67738 10.71 3.00295C11.2372 1.9682 12.0785 1.12691 13.1133 0.599627C13.7877 0.25599 14.5011 0.121675 15.2607 0.0595875C16.003 -0.00105624 16.9154 1.71244e-05 18.0107 1.71693e-05H23.7422ZM7.90039 13.1094C6.75573 13.1094 5.98623 13.1109 5.39453 13.1592C4.82101 13.2061 4.54628 13.2896 4.36524 13.3819C3.89496 13.6215 3.5121 14.0043 3.27246 14.4746C3.18026 14.6557 3.0967 14.9303 3.04981 15.5039C3.00146 16.0957 3 16.8649 3 18.0098V39.584C3 40.7287 3.00146 41.4972 3.04981 42.0889C3.09668 42.6625 3.18029 42.9371 3.27246 43.1182C3.5121 43.5885 3.89496 43.9713 4.36524 44.211C4.54628 44.3032 4.82086 44.3877 5.39453 44.4346C5.98623 44.4829 6.75572 44.4834 7.90039 44.4834H21.3857C22.5304 44.4834 23.2999 44.4829 23.8916 44.4346C24.4652 44.3877 24.7398 44.3031 24.9209 44.211C25.3913 43.9713 25.774 43.5885 26.0137 43.1182C26.1059 42.9371 26.1894 42.6626 26.2363 42.0889C26.2847 41.4972 26.2861 40.7287 26.2861 39.584V27.2637H16.0322C15.6371 27.2637 15.2501 27.2649 14.9248 27.2383C14.5821 27.2103 14.1774 27.1438 13.7705 26.9365C13.2061 26.6489 12.7466 26.1894 12.459 25.625C12.2518 25.2181 12.1852 24.8135 12.1572 24.4707C12.1307 24.1454 12.1318 23.7585 12.1318 23.3633V13.1094H7.90039ZM18.0107 3.00002C16.8659 3.00002 16.0966 3.00147 15.5049 3.04982C14.9312 3.09673 14.6567 3.18025 14.4756 3.27248C14.0052 3.51216 13.6225 3.89486 13.3828 4.36525C13.2906 4.54633 13.2071 4.82082 13.1602 5.39455C13.1118 5.98631 13.1104 6.75556 13.1104 7.90041V10.1094H13.6318C13.9647 10.1094 14.2205 10.108 14.4727 10.1299C15.5996 10.2277 16.6691 10.6709 17.5352 11.3985C17.729 11.5614 17.9091 11.7431 18.1445 11.9785L27.417 21.251C27.6524 21.4864 27.8342 21.6665 27.9971 21.8604C28.7248 22.7265 29.1678 23.7959 29.2656 24.9229C29.2875 25.1752 29.2861 25.4306 29.2861 25.7637V34.374H31.4961C32.6409 34.374 33.4102 34.3736 34.002 34.3252C34.5758 34.2783 34.8502 34.1938 35.0312 34.1016C35.5016 33.8619 35.8843 33.4792 36.124 33.0088C36.2162 32.8277 36.2998 32.5533 36.3467 31.9795C36.395 31.3878 36.3965 30.6193 36.3965 29.4746V17.1543H26.1426C25.7473 17.1543 25.3605 17.1555 25.0352 17.1289C24.6924 17.1009 24.2879 17.0345 23.8809 16.8272C23.3164 16.5395 22.8569 16.0801 22.5693 15.5156C22.3621 15.1087 22.2956 14.7041 22.2676 14.3613C22.241 14.036 22.2422 13.6491 22.2422 13.2539V3.00002H18.0107ZM15.1318 23.3633C15.1318 23.8081 15.1332 24.0517 15.1475 24.2266C15.148 24.2331 15.1489 24.2393 15.1494 24.2451C15.1555 24.2457 15.1622 24.2475 15.1689 24.2481C15.3438 24.2624 15.5877 24.2637 16.0322 24.2637H26.0137C25.9279 24.0954 25.823 23.9362 25.7002 23.7901C25.6403 23.7188 25.5678 23.644 25.2959 23.3721L16.0234 14.0996C15.7515 13.8277 15.6768 13.7552 15.6055 13.6953C15.4592 13.5724 15.3002 13.4666 15.1318 13.3809V23.3633ZM25.2422 13.2539C25.2422 13.6987 25.2435 13.9423 25.2578 14.1172C25.2583 14.1237 25.2592 14.1299 25.2598 14.1358C25.2659 14.1363 25.2724 14.1381 25.2793 14.1387C25.4542 14.153 25.6978 14.1543 26.1426 14.1543H36.124C36.0383 13.986 35.9334 13.8269 35.8105 13.6807C35.7506 13.6094 35.6783 13.5347 35.4062 13.2627L26.1338 3.99025C25.8617 3.7182 25.7871 3.64587 25.7158 3.58595C25.5695 3.46301 25.4107 3.35727 25.2422 3.2715V13.2539Z" fill="#979595"/>
</svg>
