<svg width="17" height="21" viewBox="0 0 17 21" fill="none" xmlns="http://www.w3.org/2000/svg">
<path fill-rule="evenodd" clip-rule="evenodd" d="M8.9977 18.2964C8.65345 18.659 8.09531 18.659 7.75106 18.2964L1.13975 11.3335C0.795504 10.9709 0.795504 10.3831 1.13975 10.0205C1.484 9.65796 2.04214 9.65796 2.38639 10.0205L7.49287 15.3986L7.49287 0.92884C7.49287 0.416102 7.88753 0.000444412 8.37438 0.000444412C8.86122 0.000444412 9.25588 0.416102 9.25588 0.92884L9.25588 15.3986L14.3624 10.0205C14.7066 9.65796 15.2648 9.65796 15.609 10.0205C15.9532 10.3831 15.9532 10.9709 15.609 11.3335L8.9977 18.2964Z" fill="white"/>
<rect y="18.5684" width="16.7486" height="1.85679" rx="0.928396" fill="white"/>
</svg>
