<svg width="46" height="42" viewBox="0 0 46 42" fill="none" xmlns="http://www.w3.org/2000/svg">
<path d="M38 0C40.7999 0 42.2 0.000151864 43.2695 0.544922C44.2103 1.02429 44.9757 1.78966 45.4551 2.73047C45.9999 3.79998 46 5.20004 46 8V33.8184C46 36.6183 45.9999 38.0184 45.4551 39.0879C44.9757 40.0287 44.2103 40.7941 43.2695 41.2734C42.2 41.8182 40.7999 41.8184 38 41.8184H8C5.20008 41.8184 3.79998 41.8182 2.73047 41.2734C1.78966 40.7941 1.02429 40.0287 0.544922 39.0879C0.000102837 38.0184 0 36.6183 0 33.8184V8C0 5.20004 0.000103356 3.79998 0.544922 2.73047C1.02429 1.78966 1.78966 1.02429 2.73047 0.544922C3.79998 0.000152539 5.20008 0 8 0H38ZM6.58203 10.4551C5.7422 10.4551 5.32181 10.4548 5.00098 10.6182C4.71873 10.762 4.48951 10.9922 4.3457 11.2744C4.18226 11.5953 4.18164 12.0155 4.18164 12.8555V35.2373C4.18164 36.0771 4.18224 36.4975 4.3457 36.8184C4.48953 37.1004 4.71891 37.3299 5.00098 37.4736C5.32182 37.637 5.74213 37.6367 6.58203 37.6367H39.418C40.2579 37.6367 40.6782 37.637 40.999 37.4736C41.2811 37.3299 41.5105 37.1004 41.6543 36.8184C41.8178 36.4975 41.8184 36.0771 41.8184 35.2373V12.8555C41.8184 12.0155 41.8177 11.5953 41.6543 11.2744C41.5105 10.9922 41.2813 10.762 40.999 10.6182C40.6782 10.4548 40.2578 10.4551 39.418 10.4551H6.58203Z" fill="white"/>
</svg>
