<svg width="122" height="122" viewBox="0 0 122 122" fill="none" xmlns="http://www.w3.org/2000/svg">
<path d="M26.8 43.9V4H95.2V43.9M26.8 95.2H15.4C12.3765 95.2 9.4769 93.9989 7.33898 91.861C5.20107 89.7231 4 86.8235 4 83.8V55.3C4 52.2765 5.20107 49.3769 7.33898 47.239C9.4769 45.1011 12.3765 43.9 15.4 43.9H106.6C109.623 43.9 112.523 45.1011 114.661 47.239C116.799 49.3769 118 52.2765 118 55.3V83.8C118 86.8235 116.799 89.7231 114.661 91.861C112.523 93.9989 109.623 95.2 106.6 95.2H95.2M26.8 72.4H95.2V118H26.8V72.4Z" stroke="#2C3E50" stroke-width="8" stroke-linecap="round" stroke-linejoin="round"/>
</svg>
