<svg width="22" height="22" viewBox="0 0 22 22" fill="none" xmlns="http://www.w3.org/2000/svg">
<path fill-rule="evenodd" clip-rule="evenodd" d="M8.69773 0C13.5014 0 17.3955 3.89411 17.3955 8.69773C17.3955 10.545 16.8166 12.2556 15.8346 13.6641L21.5505 19.38C22.1498 19.9794 22.1499 20.9511 21.5505 21.5505C20.9511 22.1499 19.9794 22.1498 19.38 21.5505L13.6641 15.8346C12.2556 16.8166 10.545 17.3955 8.69773 17.3955C3.89411 17.3955 0 13.5014 0 8.69773C0 3.89411 3.89411 0 8.69773 0ZM8.69773 1.53489C4.7418 1.53489 1.53489 4.7418 1.53489 8.69773C1.53489 12.6537 4.7418 15.8606 8.69773 15.8606C12.6537 15.8606 15.8606 12.6537 15.8606 8.69773C15.8606 4.7418 12.6537 1.53489 8.69773 1.53489Z" fill="#A3A1A1"/>
</svg>
