<svg width="46" height="46" viewBox="0 0 46 46" fill="none" xmlns="http://www.w3.org/2000/svg">
<path d="M20.9751 46C20.4029 46 19.9187 45.8386 19.5225 45.5158C19.1263 45.2077 18.8622 44.7675 18.7301 44.1952L17.5856 39.3531C17.1601 39.2064 16.7419 39.0523 16.3311 38.8909C15.9203 38.7295 15.5314 38.5608 15.1646 38.3847L10.9388 40.9818C10.4545 41.2753 9.95566 41.4 9.44211 41.356C8.94322 41.312 8.49569 41.0919 8.09952 40.6957L5.2823 37.8785C4.88612 37.4823 4.65869 37.0201 4.6 36.4919C4.55598 35.9636 4.69537 35.4648 5.01818 34.9952L7.5933 30.7914C7.41722 30.4099 7.24849 30.0211 7.08708 29.6249C6.92568 29.2287 6.78628 28.8325 6.6689 28.4364L1.78278 27.2699C1.21053 27.1525 0.770335 26.8957 0.462201 26.4995C0.154067 26.1033 0 25.6191 0 25.0469V21.0632C0 20.5056 0.154067 20.0287 0.462201 19.6325C0.770335 19.2364 1.21053 18.9796 1.78278 18.8622L6.62488 17.6957C6.75694 17.2408 6.90367 16.8153 7.06507 16.4191C7.24115 16.023 7.40255 15.6488 7.54928 15.2967L4.97416 11.0268C4.65136 10.5573 4.51196 10.073 4.55598 9.57416C4.6 9.06061 4.82743 8.60574 5.23828 8.20957L8.09952 5.37034C8.51037 4.98884 8.95056 4.76874 9.4201 4.71005C9.90431 4.65136 10.3885 4.7614 10.8727 5.04019L15.1426 7.68134C15.5094 7.49059 15.8982 7.31451 16.3091 7.15311C16.7346 6.97703 17.1601 6.81563 17.5856 6.6689L18.7301 1.80478C18.8622 1.24721 19.1263 0.807018 19.5225 0.484211C19.9187 0.161404 20.4029 0 20.9751 0H25.0249C25.5971 0 26.0813 0.161404 26.4775 0.484211C26.8737 0.807018 27.1305 1.24721 27.2478 1.80478L28.3923 6.71292C28.8472 6.85965 29.2727 7.01372 29.6689 7.17512C30.0797 7.33652 30.4612 7.5126 30.8134 7.70335L35.1273 5.04019C35.6115 4.7614 36.0884 4.65869 36.5579 4.73206C37.0274 4.79075 37.4676 5.00351 37.8785 5.37034L40.7617 8.20957C41.1726 8.60574 41.3927 9.06061 41.422 9.57416C41.466 10.073 41.334 10.5573 41.0258 11.0268L38.4287 15.2967C38.5754 15.6488 38.7295 16.023 38.8909 16.4191C39.067 16.8153 39.2284 17.2408 39.3751 17.6957L44.2172 18.8622C44.7748 18.9796 45.2077 19.2364 45.5158 19.6325C45.8386 20.0287 46 20.5056 46 21.0632V25.0469C46 25.6191 45.8386 26.1033 45.5158 26.4995C45.2077 26.8957 44.7748 27.1525 44.2172 27.2699L39.3311 28.4364C39.199 28.8325 39.0523 29.2287 38.8909 29.6249C38.7442 30.0211 38.5754 30.4099 38.3847 30.7914L40.9818 34.9952C41.3046 35.4648 41.4367 35.9636 41.378 36.4919C41.334 37.0201 41.1139 37.4823 40.7177 37.8785L37.8785 40.6957C37.4823 41.0919 37.0274 41.312 36.5139 41.356C36.015 41.4 35.5308 41.2753 35.0612 40.9818L30.8134 38.3847C30.4466 38.5608 30.0577 38.7295 29.6469 38.8909C29.236 39.0523 28.8179 39.2064 28.3923 39.3531L27.2478 44.1952C27.1305 44.7675 26.8737 45.2077 26.4775 45.5158C26.0813 45.8386 25.5971 46 25.0249 46H20.9751ZM23 30.7694C24.4233 30.7694 25.7219 30.4172 26.8957 29.7129C28.0842 29.0086 29.0233 28.0695 29.7129 26.8957C30.4172 25.7072 30.7694 24.4013 30.7694 22.978C30.7694 21.5547 30.4172 20.2635 29.7129 19.1043C29.0233 17.9305 28.0842 16.9914 26.8957 16.2871C25.7219 15.5828 24.4233 15 23 15C21.5767 15 20.2782 15.5828 19.1043 16.2871C17.9305 16.9914 16.9914 17.9305 16.2871 19.1043C15.5828 20.2635 15.2306 21.5547 15.2306 22.978C15.2306 24.4013 15.5754 25.7072 16.2651 26.8957C16.9694 28.0695 17.9085 29.0086 19.0823 29.7129C20.2708 30.4172 21.5767 30.7694 23 30.7694Z" fill="#979595"/>
</svg>
