<svg width="48" height="23" viewBox="0 0 48 23" fill="none" xmlns="http://www.w3.org/2000/svg">
<path d="M10.1738 11.3447C9.21749 11.3447 8.34532 11.0881 7.55728 10.5749C6.76923 10.0617 6.14056 9.37287 5.67128 8.50851C5.21085 7.64416 4.98063 6.68076 4.98063 5.61832C4.98063 4.6009 5.21085 3.66902 5.67128 2.82267C6.14056 1.96731 6.76923 1.28303 7.55728 0.769818C8.34532 0.256606 9.21749 0 10.1738 0C11.1389 0 12.0155 0.256606 12.8035 0.769818C13.5916 1.27403 14.2158 1.95381 14.6763 2.80916C15.1455 3.65551 15.3802 4.5919 15.3802 5.61832C15.3802 6.67176 15.1455 7.63065 14.6763 8.49501C14.2158 9.35937 13.5916 10.0527 12.8035 10.5749C12.0155 11.0881 11.1389 11.3447 10.1738 11.3447ZM2.89541 22.9595C1.95683 22.9595 1.23962 22.7749 0.743774 22.4058C0.247925 22.0366 0 21.4919 0 20.7716C0 19.9612 0.225789 19.1104 0.677366 18.219C1.1378 17.3277 1.80631 16.4993 2.6829 15.734C3.55949 14.9597 4.62645 14.3339 5.88379 13.8567C7.14112 13.3705 8.57111 13.1274 10.1738 13.1274C11.7764 13.1274 13.2064 13.3705 14.4638 13.8567C15.7211 14.3339 16.788 14.9597 17.6646 15.734C18.5412 16.4993 19.2053 17.3277 19.6569 18.219C20.1173 19.1104 20.3475 19.9612 20.3475 20.7716C20.3475 21.4919 20.0996 22.0366 19.6038 22.4058C19.1079 22.7749 18.3951 22.9595 17.4654 22.9595H2.89541ZM37.8262 11.3852C36.8611 11.3852 35.9845 11.1286 35.1965 10.6154C34.4173 10.1022 33.793 9.41339 33.3237 8.54903C32.8633 7.67567 32.6331 6.71227 32.6331 5.65884C32.6331 4.64142 32.8633 3.70953 33.3237 2.86318C33.793 2.00783 34.4217 1.32355 35.2097 0.810335C35.9978 0.297123 36.8699 0.0405167 37.8262 0.0405167C38.7914 0.0405167 39.668 0.297123 40.456 0.810335C41.2441 1.31454 41.8683 1.99432 42.3287 2.84968C42.798 3.69603 43.0326 4.62791 43.0326 5.64533C43.0326 6.70777 42.798 7.67117 42.3287 8.53553C41.8683 9.39988 41.2441 10.0932 40.456 10.6154C39.668 11.1286 38.7914 11.3852 37.8262 11.3852ZM30.5479 23C29.6093 23 28.8921 22.8109 28.3962 22.4328C27.9004 22.0636 27.6525 21.5234 27.6525 20.8121C27.6525 20.0018 27.8783 19.1509 28.3298 18.2595C28.7903 17.3682 29.4588 16.5398 30.3354 15.7745C31.212 15.0002 32.2789 14.3744 33.5362 13.8972C34.7936 13.411 36.2236 13.1679 37.8262 13.1679C39.4289 13.1679 40.8589 13.411 42.1162 13.8972C43.3735 14.3744 44.4405 15.0002 45.3171 15.7745C46.1937 16.5398 46.8578 17.3682 47.3094 18.2595C47.7698 19.1509 48 20.0018 48 20.8121C48 21.5234 47.7521 22.0636 47.2562 22.4328C46.7604 22.8109 46.0432 23 45.1046 23H30.5479ZM19.192 11.8714C18.8024 11.8714 18.466 11.7273 18.1826 11.4392C17.8993 11.1511 17.7576 10.8045 17.7576 10.3993C17.7576 10.0031 17.8993 9.66099 18.1826 9.37287C18.466 9.08475 18.8024 8.94069 19.192 8.94069C19.5993 8.94069 19.9402 9.08475 20.2147 9.37287C20.4981 9.65199 20.6397 9.99413 20.6397 10.3993C20.6397 10.8045 20.4981 11.1511 20.2147 11.4392C19.9402 11.7273 19.5993 11.8714 19.192 11.8714ZM24 11.8714C23.6015 11.8714 23.2607 11.7273 22.9773 11.4392C22.7028 11.1511 22.5656 10.8045 22.5656 10.3993C22.5656 10.0031 22.7073 9.66099 22.9906 9.37287C23.2739 9.08475 23.6104 8.94069 24 8.94069C24.3985 8.94069 24.7393 9.08475 25.0227 9.37287C25.306 9.65199 25.4477 9.99413 25.4477 10.3993C25.4477 10.8045 25.306 11.1511 25.0227 11.4392C24.7393 11.7273 24.3985 11.8714 24 11.8714ZM28.7947 11.8714C28.4051 11.8714 28.0686 11.7273 27.7853 11.4392C27.5019 11.1511 27.3603 10.8045 27.3603 10.3993C27.3603 10.0031 27.5019 9.66099 27.7853 9.37287C28.0686 9.08475 28.4051 8.94069 28.7947 8.94069C29.1931 8.94069 29.534 9.08475 29.8174 9.37287C30.1007 9.65199 30.2424 9.99413 30.2424 10.3993C30.2424 10.8045 30.1007 11.1511 29.8174 11.4392C29.534 11.7273 29.1931 11.8714 28.7947 11.8714Z" fill="#979595"/>
</svg>
