<svg width="37" height="33" viewBox="0 0 37 33" fill="none" xmlns="http://www.w3.org/2000/svg">
<path fill-rule="evenodd" clip-rule="evenodd" d="M16.6969 0.3804C15.3811 0.96189 14.3732 2.69459 12.3575 6.15999L2.88778 22.44C0.872033 25.9054 -0.135841 27.6381 0.0147174 29.0599C0.146041 30.3001 0.801367 31.4267 1.81777 32.1597C2.98305 33 4.99879 33 9.03028 33H27.9697C32.0012 33 34.017 33 35.1822 32.1597C36.1986 31.4267 36.854 30.3001 36.9853 29.0599C37.1358 27.6381 36.128 25.9054 34.1122 22.44L24.6425 6.16C22.6268 2.69459 21.6189 0.96189 20.3031 0.3804C19.1553 -0.1268 17.8447 -0.1268 16.6969 0.3804ZM20.0973 11.1464L19.9291 20.6069C19.9154 21.3802 19.2798 22 18.5006 22C17.7213 22 17.0858 21.3802 17.072 20.6069L16.9038 11.1464C16.8881 10.2602 17.6076 9.53333 18.5006 9.53333C19.3936 9.53333 20.1131 10.2602 20.0973 11.1464ZM20.3471 25.6667C20.3471 26.6792 19.5201 27.5 18.5 27.5C17.4799 27.5 16.6529 26.6792 16.6529 25.6667C16.6529 24.6541 17.4799 23.8333 18.5 23.8333C19.5201 23.8333 20.3471 24.6541 20.3471 25.6667Z" fill="#836000"/>
</svg>
